PathFileType	4	(X/Y/Z)	 s04c0301.trc
DataRate	CameraRate	NumFrames	NumMarkers	Units	OrigDataRate	OrigDataStartFrame	OrigNumFrames
200	200	5	50	mm	200	751	2000
Frame#	Time	racr			lacr			c7			jug			rlel			rdr			llel			ldr			s2			lic			ric			lasi			rasi			rpsi			lpsi			rgt			lgt			rth1			rth2			rth3			rth4			rlfc			rmfc			rsh1			rsh2			rsh3			rsh4			rlmal			rmmal			rcal			rtoe			rmt5			lth1			lth2			lth4			lth3			llfc			lmfc			lsh1			lsh2			lsh3			lsh4			llmal			lmmal			lcal			ltoe			lmt5			SBIKE			LBIKE			RBIKE			
		X1	Y1	Z1	X2	Y2	Z2	X3	Y3	Z3	X4	Y4	Z4	X5	Y5	Z5	X6	Y6	Z6	X7	Y7	Z7	X8	Y8	Z8	X9	Y9	Z9	X10	Y10	Z10	X11	Y11	Z11	X12	Y12	Z12	X13	Y13	Z13	X14	Y14	Z14	X15	Y15	Z15	X16	Y16	Z16	X17	Y17	Z17	X18	Y18	Z18	X19	Y19	Z19	X20	Y20	Z20	X21	Y21	Z21	X22	Y22	Z22	X23	Y23	Z23	X24	Y24	Z24	X25	Y25	Z25	X26	Y26	Z26	X27	Y27	Z27	X28	Y28	Z28	X29	Y29	Z29	X30	Y30	Z30	X31	Y31	Z31	X32	Y32	Z32	X33	Y33	Z33	X34	Y34	Z34	X35	Y35	Z35	X36	Y36	Z36	X37	Y37	Z37	X38	Y38	Z38	X39	Y39	Z39	X40	Y40	Z40	X41	Y41	Z41	X42	Y42	Z42	X43	Y43	Z43	X44	Y44	Z44	X45	Y45	Z45	X46	Y46	Z46	X47	Y47	Z47	X48	Y48	Z48	X49	Y49	Z49	X50	Y50	Z50	
751	3.7550	806.474645	1294.445763	-59.432737	824.481640	1297.311439	-373.334305	804.568545	1372.982193	-208.650779	773.841273	1218.193791	-229.680295	560.289488	1121.473514	76.503912	704.715018	928.797126	-72.973333	626.012727	1151.424778	-545.407372	713.716147	913.771388	-451.052018	239.429172	1310.628284	-330.196170	422.982679	1241.017735	-441.159039	346.822815	1317.508193	-138.555971	429.918253	1191.553127	-386.311836	378.872584	1246.674860	-159.253710	270.207509	1355.541081	-291.366721	289.804828	1338.913840	-363.874254	299.055958	1283.223948	-121.087719	338.437573	1159.676974	-468.517406	400.363980	1158.749303	-96.910372	474.069704	1110.210054	-98.210942	515.253108	1035.675539	-94.000088	498.119213	1132.040886	-118.228442	601.149655	912.439239	-109.301846	583.115582	893.233696	-222.530828	519.465905	819.473770	-84.816145	477.167174	739.345971	-98.082204	401.583770	697.937157	-103.643538	502.447408	720.909931	-120.792894	305.154038	576.465383	-110.724043	326.757558	575.644144	-195.071048	228.237278	575.740554	-147.716195	490.451385	429.335607	-149.556926	422.279623	435.971393	-90.891837	343.676735	1073.626166	-478.160207	373.431779	992.058607	-472.982044	406.211369	995.864449	-458.569166	358.590158	904.120802	-476.819568	346.251407	737.939921	-458.105303	355.965115	705.946988	-345.739750	288.676492	621.927700	-479.613597	262.178514	541.668158	-458.842011	198.769282	479.616465	-460.106846	286.193736	530.694758	-429.363369	117.672749	352.677702	-457.661238	110.131250	356.299004	-368.922305	48.254441	387.660316	-420.177721	240.568783	151.247509	-394.519027	172.172199	177.881424	-463.481874	-177.531382	939.164072	-278.844374	-3.295063	86.072378	-484.627097	-15.008290	80.599051	-84.223008	
752	3.7600	806.788698	1292.843574	-60.386654	823.654403	1296.523980	-373.723265	804.169101	1371.662643	-209.459803	773.779877	1216.829591	-230.573464	558.444582	1121.945449	74.795578	704.548252	929.208426	-73.268806	626.135990	1150.891716	-546.549462	713.931177	914.966611	-455.251800	239.528401	1314.256759	-327.280545	421.193990	1243.935135	-440.461434	347.987832	1317.992116	-136.649451	428.524871	1193.669944	-386.203062	379.705325	1247.360640	-158.527598	270.807833	1358.481350	-288.579474	290.031989	1342.154208	-361.329246	300.023364	1283.672498	-119.556405	337.965238	1163.579487	-468.197526	399.865694	1157.407356	-96.655928	472.737262	1107.865079	-98.846403	512.770130	1032.513420	-95.839206	496.841376	1129.562986	-118.761086	596.960112	907.712023	-112.388301	577.463520	888.553101	-225.350923	517.305166	812.353640	-86.946621	476.337636	731.317969	-100.149920	401.940791	688.255537	-104.825022	501.214611	713.084137	-124.205438	307.921820	565.556276	-110.295630	328.924577	565.231894	-194.972529	230.596692	562.562397	-146.576726	497.126411	423.887447	-149.784819	429.054162	428.633180	-90.812863	345.274634	1076.232362	-477.041141	377.202331	995.441365	-471.820447	409.613706	1000.012711	-456.697516	364.768388	907.276201	-476.390924	354.787911	741.592497	-458.758266	363.929433	709.101788	-346.379731	293.955447	626.842359	-479.937264	264.998562	547.465539	-459.141769	199.645459	487.533559	-460.508298	288.471446	535.777035	-429.342725	114.303863	362.165761	-457.737006	106.649822	366.127870	-369.156495	45.153640	398.464489	-419.989448	232.647733	157.750275	-394.563544	164.993766	186.247609	-463.451059	-177.474353	939.189073	-278.752502	-3.309425	86.093387	-484.625575	-15.032232	80.591403	-84.229781	
753	3.7650	807.051307	1291.393107	-61.363880	822.715303	1295.919884	-374.309210	803.638904	1370.503285	-210.281900	773.676419	1215.618604	-231.548355	556.725317	1122.257293	73.114429	704.356915	929.468802	-73.535302	626.141425	1150.425375	-547.697460	713.606097	914.557562	-455.061763	239.573560	1317.366629	-324.198289	419.398190	1246.784844	-439.703530	348.912271	1318.388874	-133.936064	427.232570	1195.672814	-386.036511	381.082640	1248.369860	-157.096569	271.187774	1360.617772	-284.673786	289.888844	1345.098727	-357.967894	300.652468	1283.349513	-117.681096	337.300140	1167.277574	-467.448345	399.344195	1155.399338	-96.238907	471.369304	1104.675506	-99.332121	510.230537	1028.555432	-97.607262	495.664452	1126.235939	-119.203092	592.434258	902.246836	-115.235805	571.487344	883.701017	-227.524293	514.797138	804.763536	-89.462956	475.386090	722.850898	-102.321141	402.198245	677.983100	-106.359260	500.456277	705.224235	-126.752752	310.719845	554.317999	-109.856171	331.806169	553.953826	-195.119552	233.319295	549.341377	-145.961272	503.262914	417.163060	-150.072008	435.310951	420.562255	-90.726092	347.214077	1078.996262	-476.484126	381.160769	998.984640	-470.820079	413.168466	1004.312611	-454.983525	371.221208	910.519111	-475.952440	363.383127	745.004577	-459.230448	371.976634	712.344417	-346.983917	299.543841	631.821718	-480.363754	268.072971	553.477271	-459.495016	200.831086	495.386818	-460.712701	290.893750	541.117074	-429.390967	111.500993	372.213750	-457.554656	103.767428	376.378616	-369.263475	42.849521	409.936455	-419.601128	224.923964	164.779826	-394.396787	158.238831	195.152758	-463.217798	-177.372889	939.235117	-278.676680	-3.307937	86.135607	-484.624805	-15.017186	80.557058	-84.200711	
754	3.7700	807.301842	1289.836048	-62.119933	821.717025	1295.448079	-375.136643	803.043626	1369.344448	-210.819291	773.547983	1214.440294	-232.514899	555.003865	1122.377031	71.436022	704.142988	929.607686	-73.827556	625.839897	1150.012086	-548.948508	713.265632	914.437945	-455.076956	239.494406	1319.980684	-320.970757	417.623117	1249.485630	-438.951741	350.182127	1317.967043	-131.933292	425.987976	1197.756043	-385.886085	382.096769	1248.277543	-156.416191	271.407336	1362.529979	-281.089722	289.700413	1347.804914	-354.738607	301.756757	1282.565719	-115.516387	336.753452	1170.975411	-466.664087	398.830100	1152.655627	-95.730494	469.823409	1100.473778	-100.057225	507.126181	1024.076793	-98.704329	494.521619	1122.125679	-119.501758	587.602986	896.305399	-117.907330	565.449255	878.331888	-229.654271	511.964101	796.765340	-91.841600	474.183043	714.201537	-104.275814	402.135369	667.636303	-107.588483	499.450502	697.256094	-129.027039	313.865780	542.346128	-109.464330	334.114114	542.707982	-195.295588	236.563507	536.223766	-145.759307	508.985631	409.673066	-150.207667	441.145065	411.765070	-90.823556	349.155930	1081.720358	-475.705424	385.176287	1002.573579	-469.765470	416.769318	1008.689853	-453.379311	377.657451	913.899858	-475.392196	371.688758	748.488683	-459.580389	379.972289	715.575987	-347.495621	305.254868	636.898662	-481.089541	271.300516	559.582337	-459.715828	202.184260	503.573724	-460.748628	293.601633	546.671301	-429.539916	109.610592	382.113374	-457.136087	101.770744	386.621961	-369.184939	41.332777	421.491476	-419.056613	218.278918	172.019176	-394.525756	152.255407	204.153003	-463.208876	-177.258319	939.309756	-278.563050	-3.317831	86.197742	-484.606916	-15.035680	80.599125	-84.205863	
755	3.7750	807.519153	1288.259911	-62.834262	820.714960	1295.266441	-376.261925	802.363344	1368.299130	-211.235678	773.458894	1213.394376	-233.635520	553.447513	1122.370019	69.885144	703.892840	929.620424	-74.172777	625.332702	1149.676576	-550.197218	713.345202	914.531180	-454.305645	239.323129	1322.275296	-317.849828	415.908789	1252.125997	-438.149288	351.455345	1317.198557	-129.913938	424.832913	1199.652424	-385.581270	383.183945	1247.970261	-155.912675	271.433869	1364.263223	-277.080674	289.426078	1350.017586	-351.393704	302.944733	1281.238541	-113.194637	336.532331	1174.681454	-466.085444	398.308407	1149.264790	-95.153524	468.437284	1096.108292	-100.329864	504.432846	1019.022991	-100.213028	493.380133	1117.440997	-119.638603	582.605278	890.053697	-120.438353	559.254566	872.426481	-231.786660	509.149930	788.740469	-94.146757	472.869618	705.437186	-106.037728	401.978691	657.194940	-108.745161	498.457075	688.940911	-130.980485	316.951604	530.317432	-109.650072	336.555541	531.182114	-195.552448	239.091099	523.204073	-145.287012	514.135587	401.329457	-150.303262	446.301594	402.486282	-90.942947	351.227335	1084.267606	-474.877437	389.176538	1006.214168	-468.724769	420.379770	1013.073719	-451.885085	384.269832	917.493972	-474.682631	380.144739	751.923994	-459.965338	387.868773	718.834476	-348.035514	310.809023	641.729403	-481.597759	274.620642	565.534272	-459.785419	203.919923	511.532386	-460.654201	296.507499	552.187818	-429.628592	108.341210	392.157317	-456.670205	102.249893	395.725885	-369.476161	40.644389	432.690243	-417.993544	212.217161	179.153897	-394.705533	146.971462	213.247678	-463.106196	-177.122096	939.376484	-278.452704	-3.294230	86.389328	-484.723319	-15.031228	80.597937	-84.203743	
